<svg xmlns="http://www.w3.org/2000/svg" enable-background="new 0 0 84 84" viewBox="0 0 84 84"><path fill="#e1e9ff" d="M42,10c0,0-8,0-14,8c-6,8-7,10-11,12s-7,3-7,13s10,7,13,16s8,15,19,15s9-7,16-9s16-6,16-13s-5-10-3-15s3-7,3-14c0-3.343-2.078-5.918-5.163-7.034c-1.584-0.573-3.239-0.719-4.911-0.687c-1.595,0.031-3.022,0.752-4.595,0.935c-3.554,0.414-5.185-2.436-7.921-4.044C48.573,10.503,45.249,10,42,10z"/><path fill="#d7e0f4" d="M42,69c-7.579,0-11.442-3.139-14.256-11.581c-1.999-5.995-6.371-8.427-9.264-10.037C15.495,45.723,15,45.379,15,43c0-6.434,0.777-6.817,3.669-8.247l0.566-0.281c4.437-2.218,6.264-4.692,10.269-10.114C30.232,23.374,31.053,22.262,32,21c4.377-5.837,9.945-6,10-6c2.931,0,5.18,0.484,6.876,1.481c0.493,0.29,1.05,0.752,1.639,1.242c1.694,1.407,4.254,3.533,8.132,3.533c0.415,0,0.84-0.025,1.263-0.074c1.079-0.126,2.021-0.388,2.779-0.599c0.503-0.14,1.073-0.299,1.333-0.304l0.332-0.003c1.158,0,2.042,0.125,2.783,0.393C68.373,21.116,69,21.9,69,23c0,5.579-0.616,7.109-2.263,11.199l-0.379,0.944c-1.863,4.657-0.173,8.419,1.06,11.166C68.267,48.2,69,49.833,69,52c0,2.829-4.857,6.045-12.374,8.192c-4.394,1.255-6.541,3.897-8.108,5.826C46.854,68.065,46.095,69,42,69z"/><path fill="#ced9ed" d="M42,64c-4.79,0-7.17-1.134-9.513-8.162C29.874,48,24.043,44.756,20.911,43.013c-0.258-0.143-0.554-0.229-0.782-0.423c-0.253-0.215-0.264-0.543-0.217-0.85c0.068-0.441,0.134-0.873,0.153-1.32c0.016-0.36,0.148-0.688,0.415-0.934c0.398-0.367,0.946-0.514,1.417-0.759c0.33-0.172,0.657-0.349,0.98-0.533c0.605-0.346,1.197-0.715,1.77-1.112c1.072-0.742,2.073-1.581,2.999-2.497c0.962-0.952,1.845-1.981,2.69-3.037c0.99-1.238,1.932-2.514,2.874-3.789c0.106-0.143,0.211-0.286,0.316-0.428C34.265,26.331,35.071,25.239,36,24c2.601-3.468,5.656-3.943,6.16-4c1.881,0.015,3.325,0.288,4.182,0.791c0.173,0.108,0.657,0.511,0.978,0.777c1.973,1.639,5.644,4.687,11.327,4.687c0.608,0,1.228-0.036,1.842-0.108l0.077-0.009c1.796-0.212,3.238,1.507,2.669,3.224c-0.278,0.837-0.648,1.756-1.136,2.968l-0.381,0.949c-2.653,6.633-0.187,12.126,1.138,15.077c0.006,0.014,0.012,0.027,0.018,0.041c0.805,1.794,0.04,3.889-1.718,4.77c-1.394,0.7-3.321,1.48-5.903,2.218c-5.908,1.688-8.854,5.314-10.624,7.492c-0.569,0.7-1.413,1.106-2.315,1.121C42.215,63.999,42.111,64,42,64z"/><path fill="#aab4bc" d="M49,47c0,4.96-3.14,9-7,9s-7-4.04-7-9c0-0.5,0.03-1.02,0.1-1.55C35.65,40.52,38.74,35,42,35s6.35,5.52,6.9,10.45C48.97,45.98,49,46.5,49,47z"/><path fill="#d5e3ef" d="M48.9,45.45C48.37,49.73,45.48,53,42,53s-6.37-3.27-6.9-7.55c0.27-2.4,1.13-4.93,2.32-6.89C38.69,36.46,40.32,35,42,35s3.31,1.46,4.58,3.56C47.77,40.52,48.63,43.05,48.9,45.45z"/><path fill="#f2f8fc" d="M46.58,38.56C45.59,37.79,44.06,37,42,37s-3.59,0.79-4.58,1.56C38.69,36.46,40.32,35,42,35S45.31,36.46,46.58,38.56z"/><path fill="#3e4354" d="M27,42h-3h-4h-3h-3v2h2.05c0.23,1.14,1.24,2,2.45,2s2.22-0.86,2.45-2h2.1c0.23,1.14,1.24,2,2.45,2s2.22-0.86,2.45-2h5.35c-0.2,1.05-0.3,2.06-0.3,3c0,6.07,4.04,11,9,11s9-4.93,9-11c0-0.94-0.1-1.95-0.3-3h5.35c0.23,1.14,1.24,2,2.45,2s2.22-0.86,2.45-2h2.1c0.23,1.14,1.24,2,2.45,2s2.22-0.86,2.45-2H70v-2h-3h-3h-4h-3h-6.78c-0.51-1.78-1.28-3.53-2.24-5H52v-2h-5.65c-0.99-0.98-2.12-1.66-3.35-1.9V27h-2v6.1c-1.23,0.24-2.36,0.92-3.35,1.9H32v2h4.02c-0.96,1.47-1.73,3.22-2.24,5H27z M42,35c3.61,0,7,6.76,7,12c0,4.96-3.14,9-7,9s-7-4.04-7-9C35,41.76,38.39,35,42,35z"/></svg>