<?xml version="1.0" encoding="UTF-8"?>
<svg xmlns="http://www.w3.org/2000/svg" xmlns:xlink="http://www.w3.org/1999/xlink" width="24px" height="24px" viewBox="0 0 24 24" version="1.1">
<g id="surface1">
<path style=" stroke:none;fill-rule:nonzero;fill:rgb(0.392157%,0%,0.784314%);fill-opacity:1;" d="M 23.65625 0.121094 C 23.53125 0.0390625 23.390625 0 23.25 0 C 23.105469 0 22.960938 0.0429688 22.832031 0.125 L 0.335938 15.125 C 0.101562 15.277344 -0.0234375 15.550781 0.00390625 15.828125 C 0.0351562 16.105469 0.214844 16.34375 0.472656 16.445312 L 6.339844 18.792969 L 9.097656 23.621094 C 9.230469 23.855469 9.476562 23.996094 9.742188 24 C 9.746094 24 9.746094 24 9.75 24 C 10.015625 24 10.257812 23.859375 10.394531 23.636719 L 11.949219 21.039062 L 19.222656 23.945312 C 19.3125 23.980469 19.40625 24 19.5 24 C 19.628906 24 19.753906 23.96875 19.867188 23.902344 C 20.066406 23.792969 20.203125 23.597656 20.238281 23.371094 L 23.988281 0.871094 C 24.039062 0.578125 23.90625 0.28125 23.65625 0.121094 Z M 2.351562 15.582031 L 19.734375 3.996094 L 7.097656 17.523438 C 7.03125 17.480469 6.96875 17.429688 6.898438 17.398438 Z M 7.640625 18.050781 C 7.640625 18.046875 7.636719 18.042969 7.636719 18.042969 L 21.84375 2.835938 L 9.734375 21.707031 Z M 18.914062 22.207031 L 12.507812 19.644531 C 12.355469 19.585938 12.195312 19.5625 12.039062 19.554688 L 21.902344 4.265625 Z M 18.914062 22.207031 "/>
</g>
</svg>
